HIERARCHY
ROOT Hips
{
  OFFSET 0.000000 95.000000 0.000000
  CHANNELS 6 Xposition Yposition Zposition Zrotation Xrotation Yrotation
  JOINT Spine
  {
    OFFSET 0.000000 10.000000 0.000000
    CHANNELS 3 Zrotation Xrotation Yrotation
    JOINT Spine1
    {
      OFFSET 0.000000 12.000000 0.000000
      CHANNELS 3 Zrotation Xrotation Yrotation
      JOINT Spine2
      {
        OFFSET 0.000000 12.000000 0.000000
        CHANNELS 3 Zrotation Xrotation Yrotation
        JOINT Neck
        {
          OFFSET 0.000000 10.000000 0.000000
          CHANNELS 3 Zrotation Xrotation Yrotation
          JOINT Head
          {
            OFFSET 0.000000 8.000000 0.000000
            CHANNELS 3 Zrotation Xrotation Yrotation
            End Site
            {
              OFFSET 0.000000 10.000000 0.000000
            }
          }
        }
        JOINT LeftShoulder
        {
          OFFSET 6.000000 8.000000 0.000000
          CHANNELS 3 Zrotation Xrotation Yrotation
          JOINT LeftArm
          {
            OFFSET 12.000000 0.000000 0.000000
            CHANNELS 3 Zrotation Xrotation Yrotation
            JOINT LeftForeArm
            {
              OFFSET 24.000000 0.000000 0.000000
              CHANNELS 3 Zrotation Xrotation Yrotation
              JOINT LeftHand
              {
                OFFSET 22.000000 0.000000 0.000000
                CHANNELS 3 Zrotation Xrotation Yrotation
                JOINT LeftHandThumb1
                {
                  OFFSET 1.800000 -1.400000 0.500000
                  CHANNELS 3 Zrotation Xrotation Yrotation
                  JOINT LeftHandThumb2
                  {
                    OFFSET 2.400000 0.000000 0.000000
                    CHANNELS 3 Zrotation Xrotation Yrotation
                    JOINT LeftHandThumb3
                    {
                      OFFSET 1.900000 0.000000 0.000000
                      CHANNELS 3 Zrotation Xrotation Yrotation
                      End Site
                      {
                        OFFSET 1.600000 0.000000 0.000000
                      }
                    }
                  }
                }
                JOINT LeftHandIndex1
                {
                  OFFSET 6.600000 1.200000 0.300000
                  CHANNELS 3 Zrotation Xrotation Yrotation
                  JOINT LeftHandIndex2
                  {
                    OFFSET 2.000000 0.000000 0.000000
                    CHANNELS 3 Zrotation Xrotation Yrotation
                    JOINT LeftHandIndex3
                    {
                      OFFSET 1.200000 0.000000 0.000000
                      CHANNELS 3 Zrotation Xrotation Yrotation
                      End Site
                      {
                        OFFSET 1.000000 0.000000 0.000000
                      }
                    }
                  }
                }
                JOINT LeftHandMiddle1
                {
                  OFFSET 7.200000 0.000000 0.300000
                  CHANNELS 3 Zrotation Xrotation Yrotation
                  JOINT LeftHandMiddle2
                  {
                    OFFSET 3.000000 0.000000 0.000000
                    CHANNELS 3 Zrotation Xrotation Yrotation
                    JOINT LeftHandMiddle3
                    {
                      OFFSET 2.000000 0.000000 0.000000
                      CHANNELS 3 Zrotation Xrotation Yrotation
                      End Site
                      {
                        OFFSET 1.600000 0.000000 0.000000
                      }
                    }
                  }
                }
                JOINT LeftHandRing1
                {
                  OFFSET 7.100000 -1.000000 0.400000
                  CHANNELS 3 Zrotation Xrotation Yrotation
                  JOINT LeftHandRing2
                  {
                    OFFSET 2.600000 0.000000 0.000000
                    CHANNELS 3 Zrotation Xrotation Yrotation
                    JOINT LeftHandRing3
                    {
                      OFFSET 1.600000 0.000000 0.000000
                      CHANNELS 3 Zrotation Xrotation Yrotation
                      End Site
                      {
                        OFFSET 1.300000 0.000000 0.000000
                      }
                    }
                  }
                }
                JOINT LeftHandPinky1
                {
                  OFFSET 6.500000 -2.000000 0.500000
                  CHANNELS 3 Zrotation Xrotation Yrotation
                  JOINT LeftHandPinky2
                  {
                    OFFSET 1.900000 0.000000 0.000000
                    CHANNELS 3 Zrotation Xrotation Yrotation
                    JOINT LeftHandPinky3
                    {
                      OFFSET 1.400000 0.000000 0.000000
                      CHANNELS 3 Zrotation Xrotation Yrotation
                      End Site
                      {
                        OFFSET 1.300000 0.000000 0.000000
                      }
                    }
                  }
                }
              }
            }
          }
        }
        JOINT RightShoulder
        {
          OFFSET -6.000000 8.000000 0.000000
          CHANNELS 3 Zrotation Xrotation Yrotation
          JOINT RightArm
          {
            OFFSET -12.000000 0.000000 0.000000
            CHANNELS 3 Zrotation Xrotation Yrotation
            JOINT RightForeArm
            {
              OFFSET -24.000000 0.000000 0.000000
              CHANNELS 3 Zrotation Xrotation Yrotation
              JOINT RightHand
              {
                OFFSET -22.000000 0.000000 0.000000
                CHANNELS 3 Zrotation Xrotation Yrotation
                JOINT RightHandThumb1
                {
                  OFFSET -1.800000 -1.400000 0.500000
                  CHANNELS 3 Zrotation Xrotation Yrotation
                  JOINT RightHandThumb2
                  {
                    OFFSET -2.400000 0.000000 0.000000
                    CHANNELS 3 Zrotation Xrotation Yrotation
                    JOINT RightHandThumb3
                    {
                      OFFSET -1.900000 0.000000 0.000000
                      CHANNELS 3 Zrotation Xrotation Yrotation
                      End Site
                      {
                        OFFSET -1.600000 0.000000 0.000000
                      }
                    }
                  }
                }
                JOINT RightHandIndex1
                {
                  OFFSET -6.600000 1.200000 0.300000
                  CHANNELS 3 Zrotation Xrotation Yrotation
                  JOINT RightHandIndex2
                  {
                    OFFSET -2.000000 0.000000 0.000000
                    CHANNELS 3 Zrotation Xrotation Yrotation
                    JOINT RightHandIndex3
                    {
                      OFFSET -1.200000 0.000000 0.000000
                      CHANNELS 3 Zrotation Xrotation Yrotation
                      End Site
                      {
                        OFFSET -1.000000 0.000000 0.000000
                      }
                    }
                  }
                }
                JOINT RightHandMiddle1
                {
                  OFFSET -7.200000 0.000000 0.300000
                  CHANNELS 3 Zrotation Xrotation Yrotation
                  JOINT RightHandMiddle2
                  {
                    OFFSET -3.000000 0.000000 0.000000
                    CHANNELS 3 Zrotation Xrotation Yrotation
                    JOINT RightHandMiddle3
                    {
                      OFFSET -2.000000 0.000000 0.000000
                      CHANNELS 3 Zrotation Xrotation Yrotation
                      End Site
                      {
                        OFFSET -1.600000 0.000000 0.000000
                      }
                    }
                  }
                }
                JOINT RightHandRing1
                {
                  OFFSET -7.100000 -1.000000 0.400000
                  CHANNELS 3 Zrotation Xrotation Yrotation
                  JOINT RightHandRing2
                  {
                    OFFSET -2.600000 0.000000 0.000000
                    CHANNELS 3 Zrotation Xrotation Yrotation
                    JOINT RightHandRing3
                    {
                      OFFSET -1.600000 0.000000 0.000000
                      CHANNELS 3 Zrotation Xrotation Yrotation
                      End Site
                      {
                        OFFSET -1.300000 0.000000 0.000000
                      }
                    }
                  }
                }
                JOINT RightHandPinky1
                {
                  OFFSET -6.500000 -2.000000 0.500000
                  CHANNELS 3 Zrotation Xrotation Yrotation
                  JOINT RightHandPinky2
                  {
                    OFFSET -1.900000 0.000000 0.000000
                    CHANNELS 3 Zrotation Xrotation Yrotation
                    JOINT RightHandPinky3
                    {
                      OFFSET -1.400000 0.000000 0.000000
                      CHANNELS 3 Zrotation Xrotation Yrotation
                      End Site
                      {
                        OFFSET -1.300000 0.000000 0.000000
                      }
                    }
                  }
                }
              }
            }
          }
        }
      }
    }
  }
  JOINT LeftUpLeg
  {
    OFFSET 10.000000 -5.000000 0.000000
    CHANNELS 3 Zrotation Xrotation Yrotation
    JOINT LeftLeg
    {
      OFFSET 0.000000 -42.000000 0.000000
      CHANNELS 3 Zrotation Xrotation Yrotation
      JOINT LeftFoot
      {
        OFFSET 0.000000 -42.000000 4.000000
        CHANNELS 3 Zrotation Xrotation Yrotation
        End Site
        {
          OFFSET 0.000000 0.000000 12.000000
        }
      }
    }
  }
  JOINT RightUpLeg
  {
    OFFSET -10.000000 -5.000000 0.000000
    CHANNELS 3 Zrotation Xrotation Yrotation
    JOINT RightLeg
    {
      OFFSET 0.000000 -42.000000 0.000000
      CHANNELS 3 Zrotation Xrotation Yrotation
      JOINT RightFoot
      {
        OFFSET 0.000000 -42.000000 4.000000
        CHANNELS 3 Zrotation Xrotation Yrotation
        End Site
        {
          OFFSET 0.000000 0.000000 12.000000
        }
      }
    }
  }
}
MOTION
Frames: 8
Frame Time: 0.033333
0.0000 95.0000 0.0000 0.0000 0.0000 0.0000 0.0000 0.0000 0.0000 0.0000 0.0000 0.0000 0.0000 0.0000 0.0000 0.0000 0.0000 0.0000 0.0000 0.0000 0.0000 0.0000 0.0000 0.0000 -84.5710 7.9462 8.7343 -1.3453 -2.1815 2.6298 -176.1933 -3.4636 170.2586 47.5024 -8.2734 9.0554 7.2457 0.0000 0.0000 4.8502 0.0000 0.0000 -5.9965 0.1532 0.9130 53.4658 0.0000 0.0000 84.4154 0.0000 0.0000 5.8295 -0.1722 -1.3903 77.1680 0.0000 0.0000 64.5664 0.0000 0.0000 16.3952 -0.8999 -3.2394 81.4511 0.0000 0.0000 63.0225 0.0000 0.0000 23.2413 -2.1387 -4.5851 75.5679 0.0000 0.0000 65.5782 0.0000 0.0000 0.0000 0.0000 0.0000 85.2659 -4.9105 5.3334 -0.4403 -0.2939 -0.3565 174.4296 37.5683 170.9433 -47.3494 -9.0634 -5.5941 8.0147 0.0000 0.0000 7.6422 0.0000 0.0000 1.0071 0.9036 4.9731 9.5223 0.0000 0.0000 4.4648 0.0000 0.0000 -11.3617 0.1179 5.9573 30.6752 0.0000 0.0000 24.3411 0.0000 0.0000 -19.5933 -0.9074 5.7343 31.5335 0.0000 0.0000 33.8890 0.0000 0.0000 -24.6263 -2.3625 6.7941 27.0777 0.0000 0.0000 44.2274 0.0000 0.0000 0.0000 0.0000 0.0000 0.0000 0.0000 0.0000 0.0000 0.0000 0.0000 0.0000 0.0000 0.0000 0.0000 0.0000 0.0000 0.0000 0.0000 0.0000
0.0000 95.0000 0.0000 0.0000 0.0000 0.0000 0.0000 0.0000 0.0000 0.0000 0.0000 0.0000 0.0000 0.0000 0.0000 0.0000 0.0000 0.0000 0.0000 0.0000 0.0000 0.0000 0.0000 0.0000 -85.1610 7.9914 8.6939 -0.3900 -2.7273 3.0049 -175.8197 -1.4957 171.2125 49.2585 -8.8879 8.4209 8.0800 0.0000 0.0000 4.8201 0.0000 0.0000 -6.1833 0.2053 0.5792 33.9964 0.0000 0.0000 73.8102 0.0000 0.0000 5.7428 -0.1210 -2.3601 52.7481 0.0000 0.0000 70.8042 0.0000 0.0000 15.2067 -0.8752 -4.3086 63.8323 0.0000 0.0000 70.0169 0.0000 0.0000 21.5944 -2.1985 -5.5949 61.1553 0.0000 0.0000 66.9711 0.0000 0.0000 0.0000 0.0000 0.0000 85.2699 -4.9949 5.4246 -0.4287 -0.6284 -0.7155 174.2158 33.6352 173.0029 -46.3275 -9.1161 -4.4017 8.5821 0.0000 0.0000 7.0773 0.0000 0.0000 1.2400 0.8130 4.4402 11.4714 0.0000 0.0000 1.3330 0.0000 0.0000 -11.6133 -0.0081 4.6919 37.4868 0.0000 0.0000 31.6295 0.0000 0.0000 -20.2866 -0.9440 4.8558 39.6692 0.0000 0.0000 40.9389 0.0000 0.0000 -26.7648 -2.4149 7.2524 32.4647 0.0000 0.0000 53.5839 0.0000 0.0000 0.0000 0.0000 0.0000 0.0000 0.0000 0.0000 0.0000 0.0000 0.0000 0.0000 0.0000 0.0000 0.0000 0.0000 0.0000 0.0000 0.0000 0.0000
0.0000 95.0000 0.0000 0.0000 0.0000 0.0000 0.0000 0.0000 0.0000 0.0000 0.0000 0.0000 0.0000 0.0000 0.0000 0.0000 0.0000 0.0000 0.0000 0.0000 0.0000 0.0000 0.0000 0.0000 -85.9603 7.3869 7.9253 0.0312 -3.2822 3.4707 -176.3704 -7.9623 170.7937 48.5257 -8.3607 9.8717 4.6959 0.0000 0.0000 3.2928 0.0000 0.0000 -5.7258 -0.1481 3.1075 44.1526 0.0000 0.0000 90.0000 0.0000 0.0000 6.0195 -0.2696 0.3518 51.7317 0.0000 0.0000 70.4106 0.0000 0.0000 15.9707 -0.8883 -1.6595 54.5714 0.0000 0.0000 62.7318 0.0000 0.0000 21.4090 -2.0331 -4.1353 51.8310 0.0000 0.0000 67.6851 0.0000 0.0000 0.0000 0.0000 0.0000 85.4118 -5.0562 5.4777 -0.8004 -0.4885 -0.5960 174.2476 35.8753 172.2258 -47.9810 -9.4567 -4.5388 8.7445 0.0000 0.0000 4.4823 0.0000 0.0000 0.6471 0.9534 5.2579 9.3271 0.0000 0.0000 2.1097 0.0000 0.0000 -11.4586 0.0103 4.8743 34.5537 0.0000 0.0000 29.2293 0.0000 0.0000 -20.0989 -0.9271 5.2606 36.7231 0.0000 0.0000 39.8580 0.0000 0.0000 -25.0341 -2.4060 7.2918 28.8707 0.0000 0.0000 53.8123 0.0000 0.0000 0.0000 0.0000 0.0000 0.0000 0.0000 0.0000 0.0000 0.0000 0.0000 0.0000 0.0000 0.0000 0.0000 0.0000 0.0000 0.0000 0.0000 0.0000
0.0000 95.0000 0.0000 0.0000 0.0000 0.0000 0.0000 0.0000 0.0000 0.0000 0.0000 0.0000 0.0000 0.0000 0.0000 0.0000 0.0000 0.0000 0.0000 0.0000 0.0000 0.0000 0.0000 0.0000 -86.4376 7.3830 7.8555 0.8588 -3.0262 3.0170 -175.7895 -5.2409 169.8666 48.9040 -8.5838 9.3522 7.9152 0.0000 0.0000 2.3509 0.0000 0.0000 -4.9153 -0.1777 2.8971 45.6760 0.0000 0.0000 80.8234 0.0000 0.0000 5.5797 -0.2276 -0.1045 48.3572 0.0000 0.0000 74.3201 0.0000 0.0000 15.5811 -0.8714 -1.3837 52.8967 0.0000 0.0000 64.7922 0.0000 0.0000 22.3641 -1.9434 -2.9369 49.7679 0.0000 0.0000 69.0582 0.0000 0.0000 0.0000 0.0000 0.0000 85.4618 -5.1321 5.5550 -0.8953 -0.1253 -0.2192 173.2912 34.3962 172.3258 -48.8763 -9.7040 -4.3329 7.9434 0.0000 0.0000 3.2036 0.0000 0.0000 1.0215 0.7856 4.2885 8.5328 0.0000 0.0000 2.9457 0.0000 0.0000 -11.3967 -0.0084 4.6879 25.9486 0.0000 0.0000 16.6194 0.0000 0.0000 -19.0525 -0.9439 4.2676 27.9553 0.0000 0.0000 30.1348 0.0000 0.0000 -25.9714 -2.4052 7.1924 23.9498 0.0000 0.0000 41.9846 0.0000 0.0000 0.0000 0.0000 0.0000 0.0000 0.0000 0.0000 0.0000 0.0000 0.0000 0.0000 0.0000 0.0000 0.0000 0.0000 0.0000 0.0000 0.0000 0.0000
0.0000 95.0000 0.0000 0.0000 0.0000 0.0000 0.0000 0.0000 0.0000 0.0000 0.0000 0.0000 0.0000 0.0000 0.0000 0.0000 0.0000 0.0000 0.0000 0.0000 0.0000 0.0000 0.0000 0.0000 -85.9729 7.2834 7.8126 0.4452 -2.8709 2.9592 -175.1728 -3.9940 169.6502 50.3686 -9.0279 9.1278 7.4316 0.0000 0.0000 3.0136 0.0000 0.0000 -5.2067 -0.0316 1.9702 29.5776 0.0000 0.0000 90.0000 0.0000 0.0000 6.8335 -0.1990 -1.4398 46.7836 0.0000 0.0000 85.3560 0.0000 0.0000 16.1958 -0.8948 -3.0938 64.3177 0.0000 0.0000 76.4271 0.0000 0.0000 22.3978 -2.0672 -4.1361 59.9780 0.0000 0.0000 75.4150 0.0000 0.0000 0.0000 0.0000 0.0000 85.4124 -5.1754 5.6067 -0.6540 -0.1783 -0.2539 173.0842 32.9159 172.5905 -48.6980 -9.6589 -4.3567 8.8202 0.0000 0.0000 6.8403 0.0000 0.0000 4.4793 0.5085 2.1641 9.3702 0.0000 0.0000 1.5477 0.0000 0.0000 -6.8180 -0.1327 2.5447 21.5801 0.0000 0.0000 14.8892 0.0000 0.0000 -15.4578 -0.8798 4.3590 27.0546 0.0000 0.0000 27.8046 0.0000 0.0000 -20.3683 -2.3244 6.8672 24.8724 0.0000 0.0000 37.3531 0.0000 0.0000 0.0000 0.0000 0.0000 0.0000 0.0000 0.0000 0.0000 0.0000 0.0000 0.0000 0.0000 0.0000 0.0000 0.0000 0.0000 0.0000 0.0000 0.0000
0.0000 95.0000 0.0000 0.0000 0.0000 0.0000 0.0000 0.0000 0.0000 0.0000 0.0000 0.0000 0.0000 0.0000 0.0000 0.0000 0.0000 0.0000 0.0000 0.0000 0.0000 0.0000 0.0000 0.0000 -86.6415 6.4835 6.8742 0.8382 -2.8328 2.8321 -175.6424 -6.9388 169.4240 49.7459 -9.0406 8.3052 7.7287 0.0000 0.0000 4.5265 0.0000 0.0000 -4.8159 0.0044 1.5354 39.5906 0.0000 0.0000 88.2938 0.0000 0.0000 7.4045 -0.2344 -1.1506 58.0922 0.0000 0.0000 83.3745 0.0000 0.0000 18.3487 -0.9450 -3.6046 95.5055 0.0000 0.0000 56.9256 0.0000 0.0000 24.3767 -2.2294 -5.2508 75.4559 0.0000 0.0000 71.0909 0.0000 0.0000 0.0000 0.0000 0.0000 85.5798 -5.2741 5.6969 -1.0092 -0.0320 -0.1333 173.3406 22.8274 175.6905 -48.1457 -8.9871 -6.7382 7.6378 0.0000 0.0000 7.8264 0.0000 0.0000 5.2171 0.2624 0.2006 3.5774 0.0000 0.0000 1.4627 0.0000 0.0000 -5.7642 -0.2261 0.2821 9.6969 0.0000 0.0000 5.0058 0.0000 0.0000 -14.6351 -0.8205 0.5227 15.1762 0.0000 0.0000 14.1677 0.0000 0.0000 -21.6495 -1.8742 2.5958 23.0094 0.0000 0.0000 26.5194 0.0000 0.0000 0.0000 0.0000 0.0000 0.0000 0.0000 0.0000 0.0000 0.0000 0.0000 0.0000 0.0000 0.0000 0.0000 0.0000 0.0000 0.0000 0.0000 0.0000
0.0000 95.0000 0.0000 0.0000 0.0000 0.0000 0.0000 0.0000 0.0000 0.0000 0.0000 0.0000 0.0000 0.0000 0.0000 0.0000 0.0000 0.0000 0.0000 0.0000 0.0000 0.0000 0.0000 0.0000 -87.0343 6.4814 6.8251 1.3273 -2.1094 1.9957 -175.5752 -0.7272 171.9224 49.6545 -8.7688 9.4359 7.4376 0.0000 0.0000 3.5582 0.0000 0.0000 -4.4203 -0.0076 1.4568 30.8225 0.0000 0.0000 90.0000 0.0000 0.0000 7.1636 -0.2352 -1.0161 37.4941 0.0000 0.0000 80.3844 0.0000 0.0000 17.3723 -0.9306 -2.8771 51.2478 0.0000 0.0000 77.3530 0.0000 0.0000 24.0238 -2.1059 -3.9387 50.2674 0.0000 0.0000 78.1649 0.0000 0.0000 0.0000 0.0000 0.0000 86.1126 -5.1269 5.4866 -2.1002 0.9446 0.7723 172.3565 13.5227 177.1227 -51.2321 -9.3935 -8.4655 10.9533 0.0000 0.0000 0.7002 0.0000 0.0000 5.4411 0.0201 -1.6922 3.9347 0.0000 0.0000 2.0819 0.0000 0.0000 -5.8839 -0.2875 -0.8176 6.8019 0.0000 0.0000 2.1377 0.0000 0.0000 -14.6663 -0.7922 -2.0609 9.9327 0.0000 0.0000 5.5580 0.0000 0.0000 -23.6531 -1.5233 -2.3047 10.3097 0.0000 0.0000 7.1223 0.0000 0.0000 0.0000 0.0000 0.0000 0.0000 0.0000 0.0000 0.0000 0.0000 0.0000 0.0000 0.0000 0.0000 0.0000 0.0000 0.0000 0.0000 0.0000 0.0000
0.0000 95.0000 0.0000 0.0000 0.0000 0.0000 0.0000 0.0000 0.0000 0.0000 0.0000 0.0000 0.0000 0.0000 0.0000 0.0000 0.0000 0.0000 0.0000 0.0000 0.0000 0.0000 0.0000 0.0000 -87.2803 6.1534 6.4520 1.6457 -1.6556 1.4919 -175.6808 -3.2469 171.8127 49.4427 -8.8640 8.7472 8.6997 0.0000 0.0000 5.4250 0.0000 0.0000 -4.4720 -0.0640 1.8754 41.8380 0.0000 0.0000 87.6814 0.0000 0.0000 7.1468 -0.2589 -0.6274 53.3866 0.0000 0.0000 80.4301 0.0000 0.0000 17.3183 -0.9324 -2.5863 75.0062 0.0000 0.0000 67.4727 0.0000 0.0000 24.0596 -2.1335 -4.2406 62.2865 0.0000 0.0000 73.6772 0.0000 0.0000 0.0000 0.0000 0.0000 86.8155 -4.2598 4.5031 -3.9523 2.9119 2.5600 170.7144 31.4161 180.4675 -52.3366 -11.0263 -1.3613 16.0967 0.0000 0.0000 0.8252 0.0000 0.0000 7.8165 0.6687 2.8353 5.1241 0.0000 0.0000 2.2641 0.0000 0.0000 -2.6491 0.0063 5.0448 10.2643 0.0000 0.0000 5.2690 0.0000 0.0000 -11.6043 -0.8344 4.9008 13.4664 0.0000 0.0000 6.1360 0.0000 0.0000 -21.1696 -2.0748 4.5786 11.0634 0.0000 0.0000 8.1469 0.0000 0.0000 0.0000 0.0000 0.0000 0.0000 0.0000 0.0000 0.0000 0.0000 0.0000 0.0000 0.0000 0.0000 0.0000 0.0000 0.0000 0.0000 0.0000 0.0000
